<?xml version="1.0" encoding="UTF-8"?>
<!DOCTYPE svg PUBLIC "-//W3C//DTD SVG 1.1//EN" "http://www.w3.org/Graphics/SVG/1.1/DTD/svg11.dtd">
<svg xmlns="http://www.w3.org/2000/svg" xmlns:xlink="http://www.w3.org/1999/xlink" width="565px" height="214px" version="1.1" style="background-color: rgb(255, 255, 255);"><defs><linearGradient x1="0%" y1="0%" x2="0%" y2="100%" id="mx-gradient-dae8fc-1-7ea6e0-1-s-0"><stop offset="0%" style="stop-color:#DAE8FC"/><stop offset="100%" style="stop-color:#7EA6E0"/></linearGradient><linearGradient x1="0%" y1="0%" x2="0%" y2="100%" id="mx-gradient-d5e8d4-1-97d077-1-s-0"><stop offset="0%" style="stop-color:#D5E8D4"/><stop offset="100%" style="stop-color:#97D077"/></linearGradient></defs><g transform="translate(0.5,0.5)"><rect x="11" y="11" width="50" height="30" rx="4.5" ry="4.5" fill="url(#mx-gradient-dae8fc-1-7ea6e0-1-s-0)" stroke="#6c8ebf" pointer-events="none"/><rect x="6" y="6" width="50" height="30" rx="4.5" ry="4.5" fill="url(#mx-gradient-dae8fc-1-7ea6e0-1-s-0)" stroke="#6c8ebf" pointer-events="none"/><path d="M 14 79 C 14 68.33 48 68.33 48 79 L 48 103 C 48 113.67 14 113.67 14 103 Z" fill="url(#mx-gradient-d5e8d4-1-97d077-1-s-0)" stroke="#82b366" stroke-miterlimit="10" pointer-events="none"/><path d="M 14 79 C 14 87 48 87 48 79" fill="none" stroke="#82b366" stroke-miterlimit="10" pointer-events="none"/><rect x="1" y="1" width="50" height="30" rx="4.5" ry="4.5" fill="url(#mx-gradient-dae8fc-1-7ea6e0-1-s-0)" stroke="#6c8ebf" pointer-events="none"/><path d="M 30.83 36 L 30.83 62.76" fill="none" stroke="#b85450" stroke-width="2" stroke-miterlimit="10" pointer-events="none"/><path d="M 30.83 68.76 L 26.83 60.76 L 30.83 62.76 L 34.83 60.76 Z" fill="#b85450" stroke="#b85450" stroke-width="2" stroke-miterlimit="10" pointer-events="none"/><rect x="91" y="11" width="50" height="30" rx="4.5" ry="4.5" fill="url(#mx-gradient-dae8fc-1-7ea6e0-1-s-0)" stroke="#6c8ebf" pointer-events="none"/><rect x="86" y="6" width="50" height="30" rx="4.5" ry="4.5" fill="url(#mx-gradient-dae8fc-1-7ea6e0-1-s-0)" stroke="#6c8ebf" pointer-events="none"/><path d="M 94 79 C 94 68.33 128 68.33 128 79 L 128 103 C 128 113.67 94 113.67 94 103 Z" fill="url(#mx-gradient-d5e8d4-1-97d077-1-s-0)" stroke="#82b366" stroke-miterlimit="10" pointer-events="none"/><path d="M 94 79 C 94 87 128 87 128 79" fill="none" stroke="#82b366" stroke-miterlimit="10" pointer-events="none"/><rect x="81" y="1" width="50" height="30" rx="4.5" ry="4.5" fill="url(#mx-gradient-dae8fc-1-7ea6e0-1-s-0)" stroke="#6c8ebf" pointer-events="none"/><path d="M 110.83 36 L 110.83 62.76" fill="none" stroke="#b85450" stroke-width="2" stroke-miterlimit="10" pointer-events="none"/><path d="M 110.83 68.76 L 106.83 60.76 L 110.83 62.76 L 114.83 60.76 Z" fill="#b85450" stroke="#b85450" stroke-width="2" stroke-miterlimit="10" pointer-events="none"/><rect x="176" y="11" width="50" height="30" rx="4.5" ry="4.5" fill="url(#mx-gradient-dae8fc-1-7ea6e0-1-s-0)" stroke="#6c8ebf" pointer-events="none"/><rect x="171" y="6" width="50" height="30" rx="4.5" ry="4.5" fill="url(#mx-gradient-dae8fc-1-7ea6e0-1-s-0)" stroke="#6c8ebf" pointer-events="none"/><path d="M 179 79 C 179 68.33 213 68.33 213 79 L 213 103 C 213 113.67 179 113.67 179 103 Z" fill="url(#mx-gradient-d5e8d4-1-97d077-1-s-0)" stroke="#82b366" stroke-miterlimit="10" pointer-events="none"/><path d="M 179 79 C 179 87 213 87 213 79" fill="none" stroke="#82b366" stroke-miterlimit="10" pointer-events="none"/><rect x="166" y="1" width="50" height="30" rx="4.5" ry="4.5" fill="url(#mx-gradient-dae8fc-1-7ea6e0-1-s-0)" stroke="#6c8ebf" pointer-events="none"/><path d="M 195.83 36 L 195.83 62.76" fill="none" stroke="#b85450" stroke-width="2" stroke-miterlimit="10" pointer-events="none"/><path d="M 195.83 68.76 L 191.83 60.76 L 195.83 62.76 L 199.83 60.76 Z" fill="#b85450" stroke="#b85450" stroke-width="2" stroke-miterlimit="10" pointer-events="none"/><rect x="256" y="11" width="50" height="30" rx="4.5" ry="4.5" fill="url(#mx-gradient-dae8fc-1-7ea6e0-1-s-0)" stroke="#6c8ebf" pointer-events="none"/><rect x="251" y="6" width="50" height="30" rx="4.5" ry="4.5" fill="url(#mx-gradient-dae8fc-1-7ea6e0-1-s-0)" stroke="#6c8ebf" pointer-events="none"/><path d="M 259 79 C 259 68.33 293 68.33 293 79 L 293 103 C 293 113.67 259 113.67 259 103 Z" fill="url(#mx-gradient-d5e8d4-1-97d077-1-s-0)" stroke="#82b366" stroke-miterlimit="10" pointer-events="none"/><path d="M 259 79 C 259 87 293 87 293 79" fill="none" stroke="#82b366" stroke-miterlimit="10" pointer-events="none"/><rect x="246" y="1" width="50" height="30" rx="4.5" ry="4.5" fill="url(#mx-gradient-dae8fc-1-7ea6e0-1-s-0)" stroke="#6c8ebf" pointer-events="none"/><path d="M 275.83 36 L 275.83 62.76" fill="none" stroke="#b85450" stroke-width="2" stroke-miterlimit="10" pointer-events="none"/><path d="M 275.83 68.76 L 271.83 60.76 L 275.83 62.76 L 279.83 60.76 Z" fill="#b85450" stroke="#b85450" stroke-width="2" stroke-miterlimit="10" pointer-events="none"/><rect x="341" y="11" width="50" height="30" rx="4.5" ry="4.5" fill="url(#mx-gradient-dae8fc-1-7ea6e0-1-s-0)" stroke="#6c8ebf" pointer-events="none"/><rect x="336" y="6" width="50" height="30" rx="4.5" ry="4.5" fill="url(#mx-gradient-dae8fc-1-7ea6e0-1-s-0)" stroke="#6c8ebf" pointer-events="none"/><path d="M 344 79 C 344 68.33 378 68.33 378 79 L 378 103 C 378 113.67 344 113.67 344 103 Z" fill="url(#mx-gradient-d5e8d4-1-97d077-1-s-0)" stroke="#82b366" stroke-miterlimit="10" pointer-events="none"/><path d="M 344 79 C 344 87 378 87 378 79" fill="none" stroke="#82b366" stroke-miterlimit="10" pointer-events="none"/><rect x="331" y="1" width="50" height="30" rx="4.5" ry="4.5" fill="url(#mx-gradient-dae8fc-1-7ea6e0-1-s-0)" stroke="#6c8ebf" pointer-events="none"/><path d="M 360.83 36 L 360.83 62.76" fill="none" stroke="#b85450" stroke-width="2" stroke-miterlimit="10" pointer-events="none"/><path d="M 360.83 68.76 L 356.83 60.76 L 360.83 62.76 L 364.83 60.76 Z" fill="#b85450" stroke="#b85450" stroke-width="2" stroke-miterlimit="10" pointer-events="none"/><rect x="428" y="11" width="50" height="30" rx="4.5" ry="4.5" fill="url(#mx-gradient-dae8fc-1-7ea6e0-1-s-0)" stroke="#6c8ebf" pointer-events="none"/><rect x="423" y="6" width="50" height="30" rx="4.5" ry="4.5" fill="url(#mx-gradient-dae8fc-1-7ea6e0-1-s-0)" stroke="#6c8ebf" pointer-events="none"/><path d="M 431 79 C 431 68.33 465 68.33 465 79 L 465 103 C 465 113.67 431 113.67 431 103 Z" fill="url(#mx-gradient-d5e8d4-1-97d077-1-s-0)" stroke="#82b366" stroke-miterlimit="10" pointer-events="none"/><path d="M 431 79 C 431 87 465 87 465 79" fill="none" stroke="#82b366" stroke-miterlimit="10" pointer-events="none"/><rect x="418" y="1" width="50" height="30" rx="4.5" ry="4.5" fill="url(#mx-gradient-dae8fc-1-7ea6e0-1-s-0)" stroke="#6c8ebf" pointer-events="none"/><path d="M 448.33 36 L 448.33 62.76" fill="none" stroke="#b85450" stroke-width="2" stroke-miterlimit="10" pointer-events="none"/><path d="M 448.33 68.76 L 444.33 60.76 L 448.33 62.76 L 452.33 60.76 Z" fill="#b85450" stroke="#b85450" stroke-width="2" stroke-miterlimit="10" pointer-events="none"/><rect x="513" y="11" width="50" height="30" rx="4.5" ry="4.5" fill="url(#mx-gradient-dae8fc-1-7ea6e0-1-s-0)" stroke="#6c8ebf" pointer-events="none"/><rect x="508" y="6" width="50" height="30" rx="4.5" ry="4.5" fill="url(#mx-gradient-dae8fc-1-7ea6e0-1-s-0)" stroke="#6c8ebf" pointer-events="none"/><path d="M 516 79 C 516 68.33 550 68.33 550 79 L 550 103 C 550 113.67 516 113.67 516 103 Z" fill="url(#mx-gradient-d5e8d4-1-97d077-1-s-0)" stroke="#82b366" stroke-miterlimit="10" pointer-events="none"/><path d="M 516 79 C 516 87 550 87 550 79" fill="none" stroke="#82b366" stroke-miterlimit="10" pointer-events="none"/><rect x="503" y="1" width="50" height="30" rx="4.5" ry="4.5" fill="url(#mx-gradient-dae8fc-1-7ea6e0-1-s-0)" stroke="#6c8ebf" pointer-events="none"/><path d="M 533.33 36 L 533.33 62.76" fill="none" stroke="#b85450" stroke-width="2" stroke-miterlimit="10" pointer-events="none"/><path d="M 533.33 68.76 L 529.33 60.76 L 533.33 62.76 L 537.33 60.76 Z" fill="#b85450" stroke="#b85450" stroke-width="2" stroke-miterlimit="10" pointer-events="none"/><path d="M 416.62 211 C 444.88 209.46 465.03 197.83 461.64 185.03 C 458.25 172.22 432.6 163.08 404.34 164.62 C 404.02 145.49 374.43 129.02 333.15 125.01 C 291.88 121 250 130.53 232.41 147.92 C 219.38 141.17 198.68 138.62 179.9 141.45 C 161.12 144.29 147.94 151.96 146.45 160.91 C 115.93 160.39 90.28 171.19 89.15 185.03 C 88.02 198.86 111.84 210.49 142.36 211 Z" fill="#ffffff" stroke="#0080f0" stroke-width="2" stroke-miterlimit="10" pointer-events="none"/><path d="M 138 175.01 C 138 172.8 143.37 171 150 171 C 156.63 171 162 172.8 162 175.01 L 162 196.08 C 162 198.3 156.63 200.1 150 200.1 C 143.37 200.1 138 198.3 138 196.08 Z" fill="#ffffff" stroke="#0080f0" stroke-width="2" stroke-miterlimit="10" pointer-events="none"/><path d="M 138 175.01 C 138 177.23 143.37 179.03 150 179.03 C 156.63 179.03 162 177.23 162 175.01 M 138 181.64 C 138 183.85 143.37 185.65 150 185.65 C 156.63 185.65 162 183.85 162 181.64 M 138 189.16 C 138 191.38 143.37 193.17 150 193.17 C 156.63 193.17 162 191.38 162 189.16" fill="none" stroke="#0080f0" stroke-width="2" stroke-miterlimit="10" pointer-events="none"/><path d="M 174 175.01 C 174 172.8 179.37 171 186 171 C 192.63 171 198 172.8 198 175.01 L 198 196.08 C 198 198.3 192.63 200.1 186 200.1 C 179.37 200.1 174 198.3 174 196.08 Z" fill="#ffffff" stroke="#0080f0" stroke-width="2" stroke-miterlimit="10" pointer-events="none"/><path d="M 174 175.01 C 174 177.23 179.37 179.03 186 179.03 C 192.63 179.03 198 177.23 198 175.01 M 174 181.64 C 174 183.85 179.37 185.65 186 185.65 C 192.63 185.65 198 183.85 198 181.64 M 174 189.16 C 174 191.38 179.37 193.17 186 193.17 C 192.63 193.17 198 191.38 198 189.16" fill="none" stroke="#0080f0" stroke-width="2" stroke-miterlimit="10" pointer-events="none"/><path d="M 211 175.01 C 211 172.8 216.37 171 223 171 C 229.63 171 235 172.8 235 175.01 L 235 196.08 C 235 198.3 229.63 200.1 223 200.1 C 216.37 200.1 211 198.3 211 196.08 Z" fill="#ffffff" stroke="#0080f0" stroke-width="2" stroke-miterlimit="10" pointer-events="none"/><path d="M 211 175.01 C 211 177.23 216.37 179.03 223 179.03 C 229.63 179.03 235 177.23 235 175.01 M 211 181.64 C 211 183.85 216.37 185.65 223 185.65 C 229.63 185.65 235 183.85 235 181.64 M 211 189.16 C 211 191.38 216.37 193.17 223 193.17 C 229.63 193.17 235 191.38 235 189.16" fill="none" stroke="#0080f0" stroke-width="2" stroke-miterlimit="10" pointer-events="none"/><path d="M 247 175.01 C 247 172.8 252.37 171 259 171 C 265.63 171 271 172.8 271 175.01 L 271 196.08 C 271 198.3 265.63 200.1 259 200.1 C 252.37 200.1 247 198.3 247 196.08 Z" fill="#ffffff" stroke="#0080f0" stroke-width="2" stroke-miterlimit="10" pointer-events="none"/><path d="M 247 175.01 C 247 177.23 252.37 179.03 259 179.03 C 265.63 179.03 271 177.23 271 175.01 M 247 181.64 C 247 183.85 252.37 185.65 259 185.65 C 265.63 185.65 271 183.85 271 181.64 M 247 189.16 C 247 191.38 252.37 193.17 259 193.17 C 265.63 193.17 271 191.38 271 189.16" fill="none" stroke="#0080f0" stroke-width="2" stroke-miterlimit="10" pointer-events="none"/><path d="M 284 175.01 C 284 172.8 289.37 171 296 171 C 302.63 171 308 172.8 308 175.01 L 308 196.08 C 308 198.3 302.63 200.1 296 200.1 C 289.37 200.1 284 198.3 284 196.08 Z" fill="#ffffff" stroke="#0080f0" stroke-width="2" stroke-miterlimit="10" pointer-events="none"/><path d="M 284 175.01 C 284 177.23 289.37 179.03 296 179.03 C 302.63 179.03 308 177.23 308 175.01 M 284 181.64 C 284 183.85 289.37 185.65 296 185.65 C 302.63 185.65 308 183.85 308 181.64 M 284 189.16 C 284 191.38 289.37 193.17 296 193.17 C 302.63 193.17 308 191.38 308 189.16" fill="none" stroke="#0080f0" stroke-width="2" stroke-miterlimit="10" pointer-events="none"/><path d="M 320 175.01 C 320 172.8 325.37 171 332 171 C 338.63 171 344 172.8 344 175.01 L 344 196.08 C 344 198.3 338.63 200.1 332 200.1 C 325.37 200.1 320 198.3 320 196.08 Z" fill="#ffffff" stroke="#0080f0" stroke-width="2" stroke-miterlimit="10" pointer-events="none"/><path d="M 320 175.01 C 320 177.23 325.37 179.03 332 179.03 C 338.63 179.03 344 177.23 344 175.01 M 320 181.64 C 320 183.85 325.37 185.65 332 185.65 C 338.63 185.65 344 183.85 344 181.64 M 320 189.16 C 320 191.38 325.37 193.17 332 193.17 C 338.63 193.17 344 191.38 344 189.16" fill="none" stroke="#0080f0" stroke-width="2" stroke-miterlimit="10" pointer-events="none"/><path d="M 357 175.01 C 357 172.8 362.37 171 369 171 C 375.63 171 381 172.8 381 175.01 L 381 196.08 C 381 198.3 375.63 200.1 369 200.1 C 362.37 200.1 357 198.3 357 196.08 Z" fill="#ffffff" stroke="#0080f0" stroke-width="2" stroke-miterlimit="10" pointer-events="none"/><path d="M 357 175.01 C 357 177.23 362.37 179.03 369 179.03 C 375.63 179.03 381 177.23 381 175.01 M 357 181.64 C 357 183.85 362.37 185.65 369 185.65 C 375.63 185.65 381 183.85 381 181.64 M 357 189.16 C 357 191.38 362.37 193.17 369 193.17 C 375.63 193.17 381 191.38 381 189.16" fill="none" stroke="#0080f0" stroke-width="2" stroke-miterlimit="10" pointer-events="none"/><path d="M 393 175.01 C 393 172.8 398.37 171 405 171 C 411.63 171 417 172.8 417 175.01 L 417 196.08 C 417 198.3 411.63 200.1 405 200.1 C 398.37 200.1 393 198.3 393 196.08 Z" fill="#ffffff" stroke="#0080f0" stroke-width="2" stroke-miterlimit="10" pointer-events="none"/><path d="M 393 175.01 C 393 177.23 398.37 179.03 405 179.03 C 411.63 179.03 417 177.23 417 175.01 M 393 181.64 C 393 183.85 398.37 185.65 405 185.65 C 411.63 185.65 417 183.85 417 181.64 M 393 189.16 C 393 191.38 398.37 193.17 405 193.17 C 411.63 193.17 417 191.38 417 189.16" fill="none" stroke="#0080f0" stroke-width="2" stroke-miterlimit="10" pointer-events="none"/><path d="M 123.33 36 L 181.56 162.68" fill="none" stroke="#b85450" stroke-width="2" stroke-miterlimit="10" pointer-events="none"/><path d="M 184.07 168.13 L 177.09 162.54 L 181.56 162.68 L 184.36 159.2 Z" fill="#b85450" stroke="#b85450" stroke-width="2" stroke-miterlimit="10" pointer-events="none"/><path d="M 263.33 36 L 229.07 163.05" fill="none" stroke="#b85450" stroke-width="2" stroke-miterlimit="10" pointer-events="none"/><path d="M 227.51 168.84 L 225.73 160.08 L 229.07 163.05 L 233.45 162.16 Z" fill="#b85450" stroke="#b85450" stroke-width="2" stroke-miterlimit="10" pointer-events="none"/><path d="M 435.83 36 L 338.31 164.44" fill="none" stroke="#b85450" stroke-width="2" stroke-miterlimit="10" pointer-events="none"/><path d="M 334.69 169.22 L 336.34 160.43 L 338.31 164.44 L 342.71 165.27 Z" fill="#b85450" stroke="#b85450" stroke-width="2" stroke-miterlimit="10" pointer-events="none"/><path d="M 348.33 36 L 303.81 163.23" fill="none" stroke="#b85450" stroke-width="2" stroke-miterlimit="10" pointer-events="none"/><path d="M 301.83 168.89 L 300.7 160.02 L 303.81 163.23 L 308.25 162.66 Z" fill="#b85450" stroke="#b85450" stroke-width="2" stroke-miterlimit="10" pointer-events="none"/></g></svg>